HIERARCHY
ROOT reference
{
  OFFSET 0 0 0
  CHANNELS 6 Xposition Yposition Zposition Zrotation Xrotation Yrotation
  JOINT Hips
  {
    OFFSET 346.547 88.4868 223.89
    CHANNELS 3 Zrotation Xrotation Yrotation
    JOINT RightUpLeg
    {
      OFFSET -9.27468 -1.51611 -0.00175448
      CHANNELS 3 Zrotation Xrotation Yrotation
      JOINT RightLeg
      {
        OFFSET -0.00464511 -41.8738 0.0184652
        CHANNELS 3 Zrotation Xrotation Yrotation
        JOINT RightFoot
        {
          OFFSET -0.626239 -42.3044 -0.171503
          CHANNELS 3 Zrotation Xrotation Yrotation
          End Site
          {
            OFFSET 0 -7.69 17.5
          }
        }
      }
    }
    JOINT LeftUpLeg
    {
      OFFSET 9.30083 -1.68454 -0.0454748
      CHANNELS 3 Zrotation Xrotation Yrotation
      JOINT LeftLeg
      {
        OFFSET 0.0692631 -41.8513 -0.097029
        CHANNELS 3 Zrotation Xrotation Yrotation
        JOINT LeftFoot
        {
          OFFSET 0.520945 -41.523 0.446349
          CHANNELS 3 Zrotation Xrotation Yrotation
          End Site
          {
            OFFSET 0 -7.69 17.5
          }
        }
      }
    }
    JOINT Spine
    {
      OFFSET 0.0770133 14.2992 0.0590021
      CHANNELS 3 Zrotation Xrotation Yrotation
      JOINT Spine1
      {
        OFFSET 0.0471461 9.71665 0.020973
        CHANNELS 3 Zrotation Xrotation Yrotation
        JOINT Spine2
        {
          OFFSET 0.051283 10.117 0.000913966
          CHANNELS 3 Zrotation Xrotation Yrotation
          JOINT Spine3
          {
            OFFSET 0.0447963 9.71088 0.00221408
            CHANNELS 3 Zrotation Xrotation Yrotation
            JOINT Neck
            {
              OFFSET 0.115655 10.3749 0.0448519
              CHANNELS 3 Zrotation Xrotation Yrotation
              JOINT Head
              {
                OFFSET 0.0937003 9.47807 0.0215077
                CHANNELS 3 Zrotation Xrotation Yrotation
                End Site
                {
                  OFFSET 0 15.95 0
                }
              }
            }
            JOINT RightShoulder
            {
              OFFSET -3.17023 6.91072 -0.0050072
              CHANNELS 3 Zrotation Xrotation Yrotation
              JOINT RightArm
              {
                OFFSET -12.7573 0.00694711 0.0313031
                CHANNELS 3 Zrotation Xrotation Yrotation
                JOINT RightForeArm
                {
                  OFFSET -26.5152 -0.0619338 -0.0331286
                  CHANNELS 3 Zrotation Xrotation Yrotation
                  JOINT RightHand
                  {
                    OFFSET -25.9971 0.0398378 -0.0269922
                    CHANNELS 3 Zrotation Xrotation Yrotation
                    JOINT RightHandThumb1
                    {
                      OFFSET -2.48905 0.190105 3.12053
                      CHANNELS 3 Zrotation Xrotation Yrotation
                      JOINT RightHandThumb2
                      {
                        OFFSET -3.68274 0 0
                        CHANNELS 3 Zrotation Xrotation Yrotation
                        JOINT RightHandThumb3
                        {
                          OFFSET -2.55832 0 0
                          CHANNELS 3 Zrotation Xrotation Yrotation
                          End Site
                          {
                            OFFSET -2.194 0 0
                          }
                        }
                      }
                    }
                    JOINT RightInHandIndex
                    {
                      OFFSET -3.22368 0.508421 1.97842
                      CHANNELS 3 Zrotation Xrotation Yrotation
                      JOINT RightHandIndex1
                      {
                        OFFSET -5.21684 -0.091368 0.999158
                        CHANNELS 3 Zrotation Xrotation Yrotation
                        JOINT RightHandIndex2
                        {
                          OFFSET -3.61937 0 0
                          CHANNELS 3 Zrotation Xrotation Yrotation
                          JOINT RightHandIndex3
                          {
                            OFFSET -2.0521 0 0
                            CHANNELS 3 Zrotation Xrotation Yrotation
                            End Site
                            {
                              OFFSET -1.805 0 0
                            }
                          }
                        }
                      }
                    }
                    JOINT RightInHandMiddle
                    {
                      OFFSET -3.38211 0.517263 0.756737
                      CHANNELS 3 Zrotation Xrotation Yrotation
                      JOINT RightHandMiddle1
                      {
                        OFFSET -5.17411 -0.084 0.313895
                        CHANNELS 3 Zrotation Xrotation Yrotation
                        JOINT RightHandMiddle2
                        {
                          OFFSET -3.94947 0 0
                          CHANNELS 3 Zrotation Xrotation Yrotation
                          JOINT RightHandMiddle3
                          {
                            OFFSET -2.47579 0 0
                            CHANNELS 3 Zrotation Xrotation Yrotation
                            End Site
                            {
                              OFFSET -1.975 0 0
                            }
                          }
                        }
                      }
                    }
                    JOINT RightInHandRing
                    {
                      OFFSET -3.36516 0.537895 -0.128947
                      CHANNELS 3 Zrotation Xrotation Yrotation
                      JOINT RightHandRing1
                      {
                        OFFSET -4.63474 -0.022105 -0.478947
                        CHANNELS 3 Zrotation Xrotation Yrotation
                        JOINT RightHandRing2
                        {
                          OFFSET -3.44238 0 0
                          CHANNELS 3 Zrotation Xrotation Yrotation
                          JOINT RightHandRing3
                          {
                            OFFSET -2.3881 0 0
                            CHANNELS 3 Zrotation Xrotation Yrotation
                            End Site
                            {
                              OFFSET -1.857 0 0
                            }
                          }
                        }
                      }
                    }
                    JOINT RightInHandPinky
                    {
                      OFFSET -3.16105 0.469368 -1.20179
                      CHANNELS 3 Zrotation Xrotation Yrotation
                      JOINT RightHandPinky1
                      {
                        OFFSET -4.14105 -0.022105 -1.09053
                        CHANNELS 3 Zrotation Xrotation Yrotation
                        JOINT RightHandPinky2
                        {
                          OFFSET -2.75653 0 0
                          CHANNELS 3 Zrotation Xrotation Yrotation
                          JOINT RightHandPinky3
                          {
                            OFFSET -1.74189 0 0
                            CHANNELS 3 Zrotation Xrotation Yrotation
                            End Site
                            {
                              OFFSET -1.645 0 0
                            }
                          }
                        }
                      }
                    }
                  }
                }
              }
            }
            JOINT LeftShoulder
            {
              OFFSET 3.25178 6.92057 -0.0384945
              CHANNELS 3 Zrotation Xrotation Yrotation
              JOINT LeftArm
              {
                OFFSET 12.8462 -0.0383255 -0.0637898
                CHANNELS 3 Zrotation Xrotation Yrotation
                JOINT LeftForeArm
                {
                  OFFSET 26.4888 -0.0608964 -0.0673835
                  CHANNELS 3 Zrotation Xrotation Yrotation
                  JOINT LeftHand
                  {
                    OFFSET 25.9932 -0.0402352 -0.0274148
                    CHANNELS 3 Zrotation Xrotation Yrotation
                    JOINT LeftHandThumb1
                    {
                      OFFSET 2.48905 0.190105 3.12053
                      CHANNELS 3 Zrotation Xrotation Yrotation
                      JOINT LeftHandThumb2
                      {
                        OFFSET 3.68274 0 0
                        CHANNELS 3 Zrotation Xrotation Yrotation
                        JOINT LeftHandThumb3
                        {
                          OFFSET 2.55832 0 0
                          CHANNELS 3 Zrotation Xrotation Yrotation
                          End Site
                          {
                            OFFSET 2.194 0 0
                          }
                        }
                      }
                    }
                    JOINT LeftInHandIndex
                    {
                      OFFSET 3.22368 0.508421 1.97842
                      CHANNELS 3 Zrotation Xrotation Yrotation
                      JOINT LeftHandIndex1
                      {
                        OFFSET 5.21684 -0.091368 0.999158
                        CHANNELS 3 Zrotation Xrotation Yrotation
                        JOINT LeftHandIndex2
                        {
                          OFFSET 3.61937 0 0
                          CHANNELS 3 Zrotation Xrotation Yrotation
                          JOINT LeftHandIndex3
                          {
                            OFFSET 2.0521 0 0
                            CHANNELS 3 Zrotation Xrotation Yrotation
                            End Site
                            {
                              OFFSET 1.805 0 0
                            }
                          }
                        }
                      }
                    }
                    JOINT LeftInHandMiddle
                    {
                      OFFSET 3.38211 0.517263 0.756737
                      CHANNELS 3 Zrotation Xrotation Yrotation
                      JOINT LeftHandMiddle1
                      {
                        OFFSET 5.17411 -0.084 0.313895
                        CHANNELS 3 Zrotation Xrotation Yrotation
                        JOINT LeftHandMiddle2
                        {
                          OFFSET 3.94947 0 0
                          CHANNELS 3 Zrotation Xrotation Yrotation
                          JOINT LeftHandMiddle3
                          {
                            OFFSET 2.47579 0 0
                            CHANNELS 3 Zrotation Xrotation Yrotation
                            End Site
                            {
                              OFFSET 1.975 0 0
                            }
                          }
                        }
                      }
                    }
                    JOINT LeftInHandRing
                    {
                      OFFSET 3.36516 0.537895 -0.128947
                      CHANNELS 3 Zrotation Xrotation Yrotation
                      JOINT LeftHandRing1
                      {
                        OFFSET 4.63474 -0.022105 -0.478947
                        CHANNELS 3 Zrotation Xrotation Yrotation
                        JOINT LeftHandRing2
                        {
                          OFFSET 3.44238 0 0
                          CHANNELS 3 Zrotation Xrotation Yrotation
                          JOINT LeftHandRing3
                          {
                            OFFSET 2.3881 0 0
                            CHANNELS 3 Zrotation Xrotation Yrotation
                            End Site
                            {
                              OFFSET 1.857 0 0
                            }
                          }
                        }
                      }
                    }
                    JOINT LeftInHandPinky
                    {
                      OFFSET 3.16105 0.469368 -1.20179
                      CHANNELS 3 Zrotation Xrotation Yrotation
                      JOINT LeftHandPinky1
                      {
                        OFFSET 4.14105 -0.022105 -1.09053
                        CHANNELS 3 Zrotation Xrotation Yrotation
                        JOINT LeftHandPinky2
                        {
                          OFFSET 2.75653 0 0
                          CHANNELS 3 Zrotation Xrotation Yrotation
                          JOINT LeftHandPinky3
                          {
                            OFFSET 1.74189 0 0
                            CHANNELS 3 Zrotation Xrotation Yrotation
                            End Site
                            {
                              OFFSET 1.645 0 0
                            }
                          }
                        }
                      }
                    }
                  }
                }
              }
            }
          }
        }
      }
    }
  }
}
MOTION
Frames:	7
Frame Time:	0.00833333
0 0 0 0 0 -0 20.8314 4.23892 -131.458 34.5598 -35.4525 31.0638 -7.05545 18.3558 0.927032 7.26448 8.51779 47.9991 33.1306 -11.458 17.3405 -23.1469 42.34 25.7417 5.05092 -23.1142 16.747 -6.39026 -2.51449 -14.615 -1.54253 -0.970392 -3.59844 -2.56946 -1.71343 -5.82289 -0.501938 -0.180591 2.79146 -0.437409 -3.55114 42.0187 -8.28789 9.09666 26.8767 4.85471 4.45898 1.75857 33.5301 -65.5807 -3.22904 23.6127 0.928413 125.388 12.5944 -22.1885 10.6052 28.184 10.7294 19.1592 1.92882e-14 6.36111e-15 -10 8.11646e-15 9.54166e-15 -10 -4.27387e-15 4.77083e-15 7.95139e-16 19.9818 0.871897 2.3964 24 4.77083e-15 2.5842e-15 20 1.90833e-14 1.70955e-14 -4.27387e-15 4.77083e-15 7.95139e-16 20 3.18055e-15 6.75868e-15 24 7.95139e-15 5.96354e-16 20 -7.95139e-16 1.19271e-14 -4.27387e-15 4.77083e-15 7.95139e-16 19.9748 -1.02565 -2.81938 24 -8.74653e-15 1.35174e-14 20 -3.97569e-15 -3.97569e-15 -4.27387e-15 4.77083e-15 7.95139e-16 19.7815 -3.00948 -8.30515 24 6.16232e-15 -6.36111e-15 20 1.39149e-15 1.51076e-14 6.50595 -21.3848 -49.5599 -20.1753 29.4891 -113.522 36.2043 -2.78445 -39.5776 -34.9278 -12.5012 -17.1864 -28.184 10.7294 -19.1592 -1.78944e-16 -1.27222e-14 10 4.35126e-15 -6.36111e-15 10 2.28602e-15 -5.56597e-15 4.77083e-15 -19.9818 0.871897 -2.3964 -24 -6.36111e-15 1.59028e-15 -20 0 -1.66979e-14 2.28602e-15 -5.56597e-15 4.77083e-15 -20 -7.95139e-15 -7.15625e-15 -24 -3.18055e-15 7.15625e-15 -20 -1.59028e-15 -3.42904e-15 2.28602e-15 -5.56597e-15 4.77083e-15 -19.9748 -1.02565 2.81938 -24 8.74653e-15 -0 -20 0 -1.19271e-14 2.28602e-15 -5.56597e-15 4.77083e-15 -19.7815 -3.00948 8.30515 -24 4.77083e-15 3.18055e-15 -20 4.37326e-15 -3.1408e-14 
0 0 0 0 0 -0 21.0063 4.38973 -131.129 34.4733 -35.75 31.3192 -6.79984 18.4768 0.546085 7.37418 8.42613 47.7165 33.2893 -11.7824 17.3126 -23.0267 42.4973 25.5625 5.02088 -23.1449 16.6857 -6.2659 -2.49611 -14.8207 -1.51107 -0.962592 -3.65306 -2.51751 -1.69915 -5.91056 -0.498907 -0.17996 2.7916 -0.439547 -3.50323 42.0923 -8.25521 9.08121 26.9389 4.8562 4.43348 2.17281 34.5759 -65.2602 -2.49644 23.716 0.77582 125.274 12.7643 -22.2074 10.7707 28.184 10.7294 19.1592 1.6866e-14 6.36111e-15 -10 9.15668e-15 1.27222e-14 -10 2.83268e-15 6.36111e-15 -0 19.9818 0.871897 2.3964 24 3.18055e-15 2.5842e-15 20 1.27222e-14 1.63003e-14 2.83268e-15 6.36111e-15 -0 20 3.97569e-15 5.1684e-15 24 1.03368e-14 -1.05604e-16 20 -2.38542e-15 1.31198e-14 2.83268e-15 6.36111e-15 -0 19.9748 -1.02565 -2.81938 24 -1.03368e-14 1.31198e-14 20 -5.1684e-15 -3.18055e-15 2.83268e-15 6.36111e-15 -0 19.7815 -3.00948 -8.30515 24 5.46658e-15 -7.15625e-15 20 9.93923e-16 1.74931e-14 6.72094 -21.2638 -49.1898 -20.2297 29.5285 -113.487 36.1128 -2.55483 -39.169 -35.073 -12.5121 -17.0765 -28.184 10.7294 -19.1592 8.75048e-16 -9.54166e-15 10 1.09e-14 0 10 -1.59028e-15 -6.36111e-15 4.77083e-15 -19.9818 0.871897 -2.3964 -24 -1.59028e-15 4.77083e-15 -20 0 -2.04748e-14 -1.59028e-15 -6.36111e-15 4.77083e-15 -20 -5.56597e-15 -9.54166e-15 -24 -1.59028e-15 1.98785e-15 -20 0 -6.26172e-15 -1.59028e-15 -6.36111e-15 4.77083e-15 -19.9748 -1.02565 2.81938 -24 8.74653e-15 7.95139e-16 -20 7.95139e-16 -1.20265e-14 -1.59028e-15 -6.36111e-15 4.77083e-15 -19.7815 -3.00948 8.30515 -24 4.37326e-15 3.18055e-15 -20 4.17448e-15 -3.18055e-14 
0 0 0 0 0 -0 21.1788 4.51958 -130.819 34.4406 -36.0315 31.4122 -6.69566 18.5741 0.38294 7.50355 8.34335 47.4587 33.4398 -12.0953 17.3177 -22.9227 42.6328 25.3776 4.98579 -23.161 16.6331 -6.14954 -2.48952 -15.0292 -1.48133 -0.95789 -3.70798 -2.46842 -1.6899 -5.99835 -0.497367 -0.179657 2.79178 -0.438071 -3.47564 42.1972 -8.23711 9.06417 27.0098 4.8463 4.43535 2.62947 35.6903 -64.887 -1.71282 23.8092 0.630519 125.137 12.9532 -22.1648 10.9234 28.184 10.7294 19.1592 1.40958e-14 -4.77083e-15 -10 1.74154e-14 3.18055e-15 -10 9.93923e-15 5.56597e-15 -7.95139e-16 19.9818 0.871897 2.3964 24 4.77083e-15 2.78299e-15 20 1.74931e-14 1.60022e-14 9.93923e-15 5.56597e-15 -7.95139e-16 20 7.95139e-16 6.36111e-15 24 1.11319e-14 -0 20 -7.95139e-16 1.27222e-14 9.93923e-15 5.56597e-15 -7.95139e-16 19.9748 -1.02565 -2.81938 24 -1.11319e-14 1.31198e-14 20 -4.37326e-15 -3.18055e-15 9.93923e-15 5.56597e-15 -7.95139e-16 19.7815 -3.00948 -8.30515 24 5.2181e-15 -5.56597e-15 20 7.95139e-16 1.59028e-14 6.9545 -21.1094 -48.7598 -20.299 29.5866 -113.408 36.0408 -2.28412 -38.6753 -35.2557 -12.5391 -16.9747 -28.184 10.7294 -19.1592 -1.82758e-15 -7.95139e-15 10 6.10027e-15 3.18055e-15 10 9.44227e-16 -5.56597e-15 1.59028e-15 -19.9818 0.871897 -2.3964 -24 -4.77083e-15 2.38542e-15 -20 -1.59028e-15 -1.82882e-14 9.44227e-16 -5.56597e-15 1.59028e-15 -20 -7.15625e-15 -7.95139e-15 -24 -7.95139e-16 2.78299e-15 -20 0 -6.06293e-15 9.44227e-16 -5.56597e-15 1.59028e-15 -19.9748 -1.02565 2.81938 -24 1.03368e-14 -1.09332e-15 -20 2.38542e-15 -1.27222e-14 9.44227e-16 -5.56597e-15 1.59028e-15 -19.7815 -3.00948 8.30515 -24 4.17448e-15 3.18055e-15 -20 3.8763e-15 -3.18055e-14 
0 0 0 0 0 -0 21.3591 4.69899 -130.422 34.4239 -36.3368 31.3026 -6.68067 18.6732 0.327538 7.66272 8.25496 47.2193 33.6284 -12.4169 17.2642 -23.0775 42.5861 25.2809 5.19079 -23.0952 16.6353 -6.02605 -2.44748 -15.1276 -1.45107 -0.94194 -3.73584 -2.41828 -1.66176 -6.04411 -0.495979 -0.17952 2.79199 -0.450015 -3.46134 42.0552 -8.21946 9.05261 26.934 4.83985 4.44071 2.88043 36.9074 -64.4903 -0.880225 23.8628 0.544345 124.995 13.1637 -22.1419 11.2066 28.184 10.7294 19.1592 1.32327e-14 6.36111e-15 -10 1.2997e-14 1.59028e-15 -10 -4.96962e-16 5.56597e-15 -0 19.9818 0.871897 2.3964 24 1.59028e-15 1.59028e-15 20 1.59028e-14 1.65985e-14 -4.96962e-16 5.56597e-15 -0 20 2.38542e-15 5.1684e-15 24 1.03368e-14 -0 20 -7.95139e-16 1.21259e-14 -4.96962e-16 5.56597e-15 -0 19.9748 -1.02565 -2.81938 24 -9.14409e-15 1.31198e-14 20 -5.56597e-15 -3.18055e-15 -4.96962e-16 5.56597e-15 -0 19.7815 -3.00948 -8.30515 24 5.56597e-15 -6.36111e-15 20 2.38542e-15 1.66979e-14 7.15253 -20.9652 -48.4563 -20.319 29.6548 -113.408 36.0767 -2.26185 -39.0644 -35.2901 -12.545 -16.9579 -28.184 10.7294 -19.1592 -1.82758e-15 -7.95139e-15 10 8.07405e-15 0 10 -4.96962e-16 -6.75868e-15 3.97569e-15 -19.9818 0.871897 -2.3964 -24 -4.77083e-15 3.18055e-15 -20 1.59028e-15 -1.98785e-14 -4.96962e-16 -6.75868e-15 3.97569e-15 -20 -7.15625e-15 -6.36111e-15 -24 -2.38542e-15 2.78299e-15 -20 -1.59028e-15 -6.95746e-15 -4.96962e-16 -6.75868e-15 3.97569e-15 -19.9748 -1.02565 2.81938 -24 9.54166e-15 6.95746e-16 -20 0 -1.36167e-14 -4.96962e-16 -6.75868e-15 3.97569e-15 -19.7815 -3.00948 8.30515 -24 3.57812e-15 4.37326e-15 -20 4.07509e-15 -3.02153e-14 
0 0 0 0 0 -0 21.526 4.89599 -129.979 34.3762 -36.6602 31.1605 -6.65926 18.7972 0.237936 7.83937 8.15498 46.9922 33.8187 -12.7321 17.201 -23.0352 42.6235 25.0812 5.20274 -23.0902 16.5725 -5.90089 -2.37763 -15.1739 -1.42126 -0.91827 -3.75109 -2.36875 -1.62096 -6.07029 -0.49468 -0.179384 2.79225 -0.46764 -3.45676 41.8085 -8.2062 9.04439 26.7943 4.8186 4.4334 3.11127 38.1403 -64.0425 -0.078508 23.8346 0.466974 124.819 13.3269 -22.16 11.4901 28.184 10.7294 19.1592 1.75163e-14 3.18055e-15 -10 9.55465e-15 9.54166e-15 -10 -4.02539e-15 5.96354e-15 -0 19.9818 0.871897 2.3964 24 4.77083e-15 3.97569e-15 20 1.74931e-14 1.72943e-14 -4.02539e-15 5.96354e-15 -0 20 3.18055e-15 7.15625e-15 24 9.54166e-15 -3.97569e-16 20 -3.18055e-15 1.30204e-14 -4.02539e-15 5.96354e-15 -0 19.9748 -1.02565 -2.81938 24 -1.03368e-14 1.29614e-14 20 -4.37326e-15 -2.98177e-15 -4.02539e-15 5.96354e-15 -0 19.7815 -3.00948 -8.30515 24 5.1684e-15 -7.95139e-15 20 1.19271e-15 1.35174e-14 7.25871 -20.8653 -48.2699 -20.3411 29.7607 -113.347 36.1332 -2.35894 -39.9109 -35.2808 -12.6141 -16.8363 -28.184 10.7294 -19.1592 -8.32064e-15 -3.18055e-15 10 9.93545e-15 3.18055e-15 10 -2.6339e-15 -7.15625e-15 4.77083e-15 -19.9818 0.871897 -2.3964 -24 -4.77083e-15 5.56597e-15 -20 1.59028e-15 -1.94809e-14 -2.6339e-15 -7.15625e-15 4.77083e-15 -20 -7.15625e-15 -3.18055e-15 -24 -1.59028e-15 3.18055e-15 -20 0 -5.06901e-15 -2.6339e-15 -7.15625e-15 4.77083e-15 -19.9748 -1.02565 2.81938 -24 8.74653e-15 -9.93923e-17 -20 7.95139e-16 -1.23246e-14 -2.6339e-15 -7.15625e-15 4.77083e-15 -19.7815 -3.00948 8.30515 -24 4.37326e-15 3.97569e-15 -20 4.37326e-15 -3.18055e-14 
0 0 0 0 0 -0 21.5427 4.91622 -129.933 34.3422 -36.7643 31.4447 -6.64243 18.9405 0.147774 8.03556 8.04285 46.7625 33.8484 -12.8081 17.5075 -22.7717 42.7931 24.6912 5.03551 -23.1788 16.5451 -5.88797 -2.36996 -15.1781 -1.41819 -0.915709 -3.75253 -2.36366 -1.61656 -6.07278 -0.493397 -0.179087 2.79581 -0.467625 -3.43675 41.8956 -8.19427 9.02683 26.8519 4.74207 4.48943 3.69634 39.5268 -63.5053 0.868934 23.7199 0.37326 124.576 13.338 -21.0066 11.8832 28.184 10.7294 19.1592 1.86936e-14 -1.59028e-15 -10 1.49708e-14 4.77083e-15 -10 -6.64686e-15 6.95746e-15 2.38542e-15 19.9818 0.871897 2.3964 24 4.77083e-15 1.59028e-15 20 1.66979e-14 1.59028e-14 -6.64686e-15 6.95746e-15 2.38542e-15 20 2.78299e-15 6.36111e-15 24 8.74653e-15 3.97569e-16 20 -7.95139e-16 1.27222e-14 -6.64686e-15 6.95746e-15 2.38542e-15 19.9748 -1.02565 -2.81938 24 -9.54166e-15 1.30949e-14 20 -4.77083e-15 -3.37934e-15 -6.64686e-15 6.95746e-15 2.38542e-15 19.7815 -3.00948 -8.30515 24 5.1684e-15 -6.36111e-15 20 1.19271e-15 1.51076e-14 7.46236 -20.7165 -47.6426 -20.3693 29.919 -113.313 35.7969 -1.6326 -37.3167 -35.3416 -11.4559 -18.8969 -28.184 10.7294 -19.1592 -3.72279e-15 -6.36111e-15 10 6.05554e-16 0 10 -3.47873e-16 -5.96354e-15 3.18055e-15 -19.9818 0.871897 -2.3964 -24 -3.18055e-15 3.18055e-15 -20 0 -2.06736e-14 -3.47873e-16 -5.96354e-15 3.18055e-15 -20 -6.36111e-15 -5.56597e-15 -24 -7.95139e-16 3.97569e-15 -20 0 -5.06901e-15 -3.47873e-16 -5.96354e-15 3.18055e-15 -19.9748 -1.02565 2.81938 -24 8.74653e-15 1.98785e-16 -20 7.95139e-16 -1.20265e-14 -3.47873e-16 -5.96354e-15 3.18055e-15 -19.7815 -3.00948 8.30515 -24 3.8266e-15 2.38542e-15 -20 3.97569e-15 -3.18055e-14 
0 0 0 0 0 -0 21.5229 4.89606 -129.986 34.3428 -36.8252 31.8546 -6.64394 19.1059 0.0528848 8.24472 7.94325 46.5352 33.8341 -12.8302 17.9127 -22.4612 42.9846 24.2574 4.82079 -23.3172 16.5096 -5.89863 -2.38205 -15.2017 -1.42048 -0.919695 -3.75811 -2.36749 -1.62334 -6.0813 -0.49209 -0.178001 2.80298 -0.457021 -3.43809 42.134 -8.19923 8.99884 26.9859 4.62941 4.55399 4.45438 40.9899 -62.8943 1.88276 23.5592 0.298745 124.231 13.2785 -19.604 12.3621 28.184 10.7294 19.1592 1.51279e-14 7.95139e-15 -10 3.4091e-15 1.59028e-15 -10 -1.93815e-15 7.15625e-15 -0 19.9818 0.871897 2.3964 24 3.97569e-15 2.38542e-15 20 1.66979e-14 1.51076e-14 -1.93815e-15 7.15625e-15 -0 20 2.38542e-15 4.77083e-15 24 1.03368e-14 -3.97569e-16 20 -7.95139e-16 1.28216e-14 -1.93815e-15 7.15625e-15 -0 19.9748 -1.02565 -2.81938 24 -1.03368e-14 1.22874e-14 20 -4.77083e-15 -3.08116e-15 -1.93815e-15 7.15625e-15 -0 19.7815 -3.00948 -8.30515 24 6.36111e-15 -6.36111e-15 20 7.95139e-16 1.74931e-14 7.68639 -20.5311 -46.7692 -20.3714 30.1383 -113.328 35.6232 -1.34997 -36.4493 -35.5055 -11.1233 -19.3023 -28.184 10.7294 -19.1592 2.57933e-15 -3.18055e-15 10 5.31524e-15 4.77083e-15 10 5.96354e-16 -6.75868e-15 3.18055e-15 -19.9818 0.871897 -2.3964 -24 -3.97569e-15 3.97569e-15 -20 1.59028e-15 -1.76918e-14 5.96354e-16 -6.75868e-15 3.18055e-15 -20 -7.55382e-15 -7.15625e-15 -24 -7.95139e-16 3.18055e-15 -20 7.95139e-16 -7.25564e-15 5.96354e-16 -6.75868e-15 3.18055e-15 -19.9748 -1.02565 2.81938 -24 8.74653e-15 1.86361e-17 -20 3.97569e-16 -1.26228e-14 5.96354e-16 -6.75868e-15 3.18055e-15 -19.7815 -3.00948 8.30515 -24 4.17448e-15 3.97569e-15 -20 4.37326e-15 -3.1408e-14 
